<svg width="20" height="20" viewBox="0 0 20 20" fill="none" xmlns="http://www.w3.org/2000/svg">
<path fill-rule="evenodd" clip-rule="evenodd" d="M10 6.71791C8.1874 6.71791 6.71797 8.18734 6.71797 9.99996C6.71797 11.8126 8.1874 13.282 10 13.282C11.8127 13.282 13.2821 11.8126 13.2821 9.99996C13.2821 8.18734 11.8127 6.71791 10 6.71791ZM5.07695 9.99996C5.07695 7.28102 7.28108 5.07689 10 5.07689C12.719 5.07689 14.9231 7.28102 14.9231 9.99996C14.9231 12.7189 12.719 14.923 10 14.923C7.28108 14.923 5.07695 12.7189 5.07695 9.99996Z" fill="#101010"/>
<path fill-rule="evenodd" clip-rule="evenodd" d="M10 0.153809C10.4532 0.153809 10.8205 0.521165 10.8205 0.974321V2.61535C10.8205 3.0685 10.4532 3.43586 10 3.43586C9.54687 3.43586 9.17951 3.0685 9.17951 2.61535V0.974321C9.17951 0.521165 9.54687 0.153809 10 0.153809Z" fill="#101010"/>
<path fill-rule="evenodd" clip-rule="evenodd" d="M10 16.5641C10.4532 16.5641 10.8205 16.9314 10.8205 17.3846V19.0256C10.8205 19.4788 10.4532 19.8461 10 19.8461C9.54687 19.8461 9.17951 19.4788 9.17951 19.0256V17.3846C9.17951 16.9314 9.54687 16.5641 10 16.5641Z" fill="#101010"/>
<path fill-rule="evenodd" clip-rule="evenodd" d="M3.03622 3.03516C3.35665 2.71473 3.87617 2.71473 4.1966 3.03516L5.36173 4.20029C5.68216 4.52072 5.68216 5.04024 5.36173 5.36067C5.0413 5.6811 4.52178 5.6811 4.20135 5.36067L3.03622 4.19554C2.71579 3.87511 2.71579 3.35559 3.03622 3.03516Z" fill="#101010"/>
<path fill-rule="evenodd" clip-rule="evenodd" d="M14.6384 14.6377C14.9588 14.3173 15.4783 14.3173 15.7988 14.6377L16.9639 15.8028C17.2843 16.1233 17.2843 16.6428 16.9639 16.9632C16.6435 17.2837 16.1239 17.2837 15.8035 16.9632L14.6384 15.7981C14.318 15.4777 14.318 14.9582 14.6384 14.6377Z" fill="#101010"/>
<path fill-rule="evenodd" clip-rule="evenodd" d="M0.15387 9.99996C0.15387 9.54681 0.521226 9.17945 0.974382 9.17945H2.61541C3.06856 9.17945 3.43592 9.54681 3.43592 9.99996C3.43592 10.4531 3.06856 10.8205 2.61541 10.8205H0.974382C0.521226 10.8205 0.15387 10.4531 0.15387 9.99996Z" fill="#101010"/>
<path fill-rule="evenodd" clip-rule="evenodd" d="M16.5641 9.99996C16.5641 9.54681 16.9315 9.17945 17.3846 9.17945H19.0257C19.4788 9.17945 19.8462 9.54681 19.8462 9.99996C19.8462 10.4531 19.4788 10.8205 19.0257 10.8205H17.3846C16.9315 10.8205 16.5641 10.4531 16.5641 9.99996Z" fill="#101010"/>
<path fill-rule="evenodd" clip-rule="evenodd" d="M5.36173 14.6377C5.68216 14.9582 5.68216 15.4777 5.36173 15.7981L4.1966 16.9632C3.87617 17.2837 3.35665 17.2837 3.03622 16.9632C2.71579 16.6428 2.71579 16.1233 3.03622 15.8028L4.20135 14.6377C4.52178 14.3173 5.0413 14.3173 5.36173 14.6377Z" fill="#101010"/>
<path fill-rule="evenodd" clip-rule="evenodd" d="M16.9639 3.03516C17.2843 3.35559 17.2843 3.87511 16.9639 4.19554L15.7988 5.36067C15.4783 5.6811 14.9588 5.6811 14.6384 5.36067C14.318 5.04024 14.318 4.52072 14.6384 4.20029L15.8035 3.03516C16.1239 2.71473 16.6435 2.71473 16.9639 3.03516Z" fill="#101010"/>
</svg>
